grf
version=1
nRows=5
nColumns=73
inDegrees=yes
endheader
time	ground_force_1_vx	ground_force_1_vy	ground_force_1_vz	ground_force_1_px	ground_force_1_py	ground_force_1_pz	ground_moment_1_mx	ground_moment_1_my	ground_moment_1_mz	ground_force_2_vx	ground_force_2_vy	ground_force_2_vz	ground_force_2_px	ground_force_2_py	ground_force_2_pz	ground_moment_2_mx	ground_moment_2_my	ground_moment_2_mz	ground_force_3_vx	ground_force_3_vy	ground_force_3_vz	ground_force_3_px	ground_force_3_py	ground_force_3_pz	ground_moment_3_mx	ground_moment_3_my	ground_moment_3_mz	ground_force_4_vx	ground_force_4_vy	ground_force_4_vz	ground_force_4_px	ground_force_4_py	ground_force_4_pz	ground_moment_4_mx	ground_moment_4_my	ground_moment_4_mz	ground_force_5_vx	ground_force_5_vy	ground_force_5_vz	ground_force_5_px	ground_force_5_py	ground_force_5_pz	ground_moment_5_mx	ground_moment_5_my	ground_moment_5_mz	ground_force_6_vx	ground_force_6_vy	ground_force_6_vz	ground_force_6_px	ground_force_6_py	ground_force_6_pz	ground_moment_6_mx	ground_moment_6_my	ground_moment_6_mz	ground_force_7_vx	ground_force_7_vy	ground_force_7_vz	ground_force_7_px	ground_force_7_py	ground_force_7_pz	ground_moment_7_mx	ground_moment_7_my	ground_moment_7_mz	ground_force_8_vx	ground_force_8_vy	ground_force_8_vz	ground_force_8_px	ground_force_8_py	ground_force_8_pz	ground_moment_8_mx	ground_moment_8_my	ground_moment_8_mz
1.576000	0.000000	0.000000	0.000000	0.000000	0.000000	0.000000	0.000000	0.000000	0.000000	-77.933699	563.649832	-18.440515	0.607165	0.000000	0.383834	-0.000000	0.713556	-0.000000	-77.170078	562.926583	-19.191968	0.611847	0.000000	0.386988	-0.000000	0.495590	0.000000	0.000000	0.000000	0.000000	0.000000	0.000000	0.000000	0.000000	0.000000	0.000000	-78.937626	560.075206	-19.253634	0.611450	0.000000	0.383922	-0.000000	0.484934	-0.000000	0.852684	6.336086	1.990807	0.189038	0.000000	0.370928	-0.000000	0.528762	-0.000000	0.000000	0.000000	0.000000	0.000000	0.000000	0.000000	0.000000	0.000000	0.000000	-79.367524	558.102602	-19.127071	0.608108	0.000000	0.383891	-0.000000	0.748266	0.000000
1.577000	0.000000	0.000000	0.000000	0.000000	0.000000	0.000000	0.000000	0.000000	0.000000	-77.455750	563.307513	-18.466978	0.606202	0.000000	0.383799	-0.000000	0.732148	-0.000000	-76.706235	562.641848	-19.217763	0.610939	0.000000	0.386959	-0.000000	0.508575	0.000000	0.000000	0.000000	0.000000	0.000000	0.000000	0.000000	0.000000	0.000000	0.000000	-78.499998	559.709194	-19.243962	0.610529	0.000000	0.383902	-0.000000	0.491879	-0.000000	0.000000	0.000000	0.000000	0.000000	0.000000	0.000000	0.000000	0.000000	0.000000	0.000000	0.000000	0.000000	0.000000	0.000000	0.000000	0.000000	0.000000	0.000000	-78.943978	557.676600	-19.106305	0.607201	0.000000	0.383863	-0.000000	0.753222	0.000000
1.578000	0.000000	0.000000	0.000000	0.000000	0.000000	0.000000	0.000000	0.000000	0.000000	-76.966078	562.971035	-18.516549	0.605245	0.000000	0.383758	-0.000000	0.749558	0.000000	-76.233235	562.363492	-19.260191	0.610034	0.000000	0.386928	-0.000000	0.523226	0.000000	0.000000	0.000000	0.000000	0.000000	0.000000	0.000000	0.000000	0.000000	0.000000	-78.048541	559.350779	-19.252958	0.609607	0.000000	0.383879	-0.000000	0.501613	-0.000000	0.000000	0.000000	0.000000	0.000000	0.000000	0.000000	0.000000	0.000000	0.000000	0.000000	0.000000	0.000000	0.000000	0.000000	0.000000	0.000000	0.000000	0.000000	-78.502887	557.254971	-19.109588	0.606296	0.000000	0.383830	-0.000000	0.758715	0.000000
1.579000	0.000000	0.000000	0.000000	0.000000	0.000000	0.000000	0.000000	0.000000	0.000000	-76.468966	562.640579	-18.586268	0.604295	0.000000	0.383711	-0.000000	0.766072	0.000000	-75.754059	562.089777	-19.317047	0.609134	0.000000	0.386894	-0.000000	0.539676	0.000000	0.000000	0.000000	0.000000	0.000000	0.000000	0.000000	0.000000	0.000000	0.000000	-77.583985	558.997542	-19.279337	0.608685	0.000000	0.383853	-0.000000	0.513314	-0.000000	0.000000	0.000000	0.000000	0.000000	0.000000	0.000000	0.000000	0.000000	0.000000	0.000000	0.000000	0.000000	0.000000	0.000000	0.000000	0.000000	0.000000	0.000000	-78.044908	556.837030	-19.135868	0.605394	0.000000	0.383791	-0.000000	0.764368	0.000000
1.580000	0.000000	0.000000	0.000000	0.000000	0.000000	0.000000	0.000000	0.000000	0.000000	-75.968384	562.315166	-18.671552	0.603352	0.000000	0.383659	-0.000000	0.781628	0.000000	-75.271401	561.819038	-19.384167	0.608239	0.000000	0.386858	-0.000000	0.558060	0.000000	0.000000	0.000000	0.000000	0.000000	0.000000	0.000000	0.000000	0.000000	0.000000	-77.108385	558.647676	-19.321985	0.607765	0.000000	0.383823	-0.000000	0.526557	-0.000000	0.000000	0.000000	0.000000	0.000000	0.000000	0.000000	0.000000	0.000000	0.000000	0.000000	0.000000	0.000000	0.000000	0.000000	0.000000	0.000000	0.000000	0.000000	-77.572675	556.422933	-19.183897	0.604494	0.000000	0.383747	-0.000000	0.770174	0.000000
